<svg width="47" height="76" viewBox="0 0 47 76" fill="none" xmlns="http://www.w3.org/2000/svg">
<path d="M8.28 26.76C8.28 28.44 8.69 29.87 9.51 31.05C10.33 32.23 11.39 33.26 12.69 34.14C13.99 35.02 15.36 35.88 16.8 36.72C18.28 37.56 19.7 38.45 21.06 39.39C22.42 40.33 23.55 41.45 24.45 42.75C25.35 44.05 25.8 45.66 25.8 47.58C25.8 49.42 25.35 51.11 24.45 52.65C23.55 54.19 22.2 55.42 20.4 56.34C18.6 57.26 16.34 57.72 13.62 57.72C12.74 57.72 11.87 57.66 11.01 57.54C10.15 57.42 9.27 57.21 8.37 56.91C7.47 56.61 6.5 56.2 5.46 55.68C5.26 55.56 5.13 55.41 5.07 55.23C5.01 55.05 4.96 54.82 4.92 54.54L4.02 46.74C3.98 46.54 4.07 46.43 4.29 46.41C4.51 46.39 4.64 46.46 4.68 46.62C4.84 47.82 5.16 49.02 5.64 50.22C6.12 51.42 6.77 52.52 7.59 53.52C8.41 54.52 9.43 55.33 10.65 55.95C11.87 56.57 13.3 56.88 14.94 56.88C16.18 56.88 17.38 56.65 18.54 56.19C19.7 55.73 20.65 54.98 21.39 53.94C22.13 52.9 22.5 51.48 22.5 49.68C22.5 47.72 22.07 46.09 21.21 44.79C20.35 43.49 19.26 42.37 17.94 41.43C16.62 40.49 15.22 39.6 13.74 38.76C12.34 37.92 10.98 37.04 9.66 36.12C8.34 35.2 7.27 34.11 6.45 32.85C5.63 31.59 5.22 30.02 5.22 28.14C5.22 26.06 5.74 24.33 6.78 22.95C7.82 21.57 9.17 20.54 10.83 19.86C12.49 19.18 14.22 18.84 16.02 18.84C17.06 18.84 18.15 18.95 19.29 19.17C20.43 19.39 21.62 19.76 22.86 20.28C23.18 20.4 23.41 20.55 23.55 20.73C23.69 20.91 23.76 21.1 23.76 21.3L24.3 27.66C24.3 27.82 24.19 27.9 23.97 27.9C23.75 27.9 23.62 27.82 23.58 27.66C23.5 26.78 23.29 25.87 22.95 24.93C22.61 23.99 22.11 23.12 21.45 22.32C20.79 21.52 19.95 20.87 18.93 20.37C17.91 19.87 16.68 19.62 15.24 19.62C13.52 19.62 12.15 19.98 11.13 20.7C10.11 21.42 9.38 22.32 8.94 23.4C8.5 24.48 8.28 25.6 8.28 26.76Z" fill="#C5A059"/>
<path d="M44.53 65H19.75C19.67 65 19.63 64.88 19.63 64.64C19.63 64.4 19.67 64.28 19.75 64.28C21.27 64.28 22.41 64.18 23.17 63.98C23.93 63.78 24.44 63.38 24.7 62.78C24.96 62.18 25.09 61.3 25.09 60.14V32.36C25.09 31.2 24.96 30.33 24.7 29.75C24.44 29.17 23.93 28.77 23.17 28.55C22.41 28.33 21.27 28.22 19.75 28.22C19.67 28.22 19.63 28.1 19.63 27.86C19.63 27.62 19.67 27.5 19.75 27.5H43.51C43.87 27.5 44.05 27.68 44.05 28.04L44.17 35.3C44.17 35.42 44.06 35.48 43.84 35.48C43.62 35.48 43.51 35.42 43.51 35.3C43.51 33.22 42.97 31.59 41.89 30.41C40.81 29.23 39.39 28.64 37.63 28.64H33.49C32.01 28.64 30.9 28.74 30.16 28.94C29.42 29.14 28.92 29.53 28.66 30.11C28.4 30.69 28.27 31.56 28.27 32.72V59.9C28.27 61.02 28.4 61.86 28.66 62.42C28.92 62.98 29.42 63.36 30.16 63.56C30.9 63.76 32.01 63.86 33.49 63.86H39.01C40.61 63.86 41.99 63.16 43.15 61.76C44.31 60.36 45.03 58.52 45.31 56.24C45.31 56.12 45.43 56.07 45.67 56.09C45.91 56.11 46.03 56.18 46.03 56.3C45.87 57.34 45.74 58.59 45.64 60.05C45.54 61.51 45.49 62.86 45.49 64.1C45.49 64.7 45.17 65 44.53 65ZM41.17 50.9C41.17 49.1 40.79 47.84 40.03 47.12C39.27 46.4 37.93 46.04 36.01 46.04H26.77V44.9H36.19C38.03 44.9 39.31 44.59 40.03 43.97C40.75 43.35 41.11 42.28 41.11 40.76C41.11 40.68 41.23 40.64 41.47 40.64C41.71 40.64 41.83 40.68 41.83 40.76C41.83 41.92 41.82 42.82 41.8 43.46C41.78 44.1 41.77 44.78 41.77 45.5C41.77 46.38 41.79 47.25 41.83 48.11C41.87 48.97 41.89 49.9 41.89 50.9C41.89 50.98 41.77 51.02 41.53 51.02C41.29 51.02 41.17 50.98 41.17 50.9Z" fill="#C5A059"/>
</svg>
